<?xml version="1.0" encoding="utf-8"?>
<!-- Generator: Adobe Illustrator 17.1.0, SVG Export Plug-In . SVG Version: 6.00 Build 0)  -->
<!DOCTYPE svg PUBLIC "-//W3C//DTD SVG 1.1//EN" "http://www.w3.org/Graphics/SVG/1.1/DTD/svg11.dtd">
<svg version="1.1" id="Layer_1" xmlns="http://www.w3.org/2000/svg" xmlns:xlink="http://www.w3.org/1999/xlink" x="0px" y="0px"
	 viewBox="0 0 71 43" enable-background="new 0 0 71 43" xml:space="preserve">
<g>
	<path fill="#00BFF3" stroke="#FFFFFF" stroke-miterlimit="10" d="M21.3,42.5h49.2v-42H21.3C9.8,0.5,0.5,9.8,0.5,21.3v0.4
		C0.5,33.2,9.8,42.5,21.3,42.5z"/>
	<g>
		<path fill="#FFFFFF" d="M39.7,17.8C39.5,21.9,39.2,26,39,30c0,0.5,0.2,1,0,1.4c-0.4,0.6-1.1,1.1-1.6,1.7c-0.4-0.6-1.1-1.1-1.1-1.7
			c-0.1-4.4-0.1-8.8-0.1-13.1c0-0.4,0-0.7,0-1.4c-2,1.9-3.8,3.8-5.7,5.5c-0.5,0.4-1.2,0.5-1.9,0.8c-0.1-0.7-0.5-1.6-0.3-2.2
			c1.1-4.1,4.3-6.8,7.1-9.8c1.2-1.3,4.1-0.8,5.2,0.7c2,2.6,4,5.3,5.7,8.1c0.5,0.8,0,2.2,0,3.4c-0.9-0.4-1.9-0.7-2.6-1.3
			c-1.2-1.2-2.3-2.7-3.4-4C40.1,17.8,39.9,17.8,39.7,17.8z"/>
	</g>
</g>
</svg>
